name rise37.2698peak67.6939fall79.5734.mot
datacolumns 19
datarows 36
range 16.69161500000000 16.74994000000000
endheader
time	ground_force1_vx	ground_force1_vy	ground_force1_vz	ground_force1_px	ground_force1_py	ground_force1_pz	ground_force2_vx	ground_force2_vy	ground_force2_vz	ground_force2_px	ground_force2_py	ground_force2_pz	ground_torque1_x	ground_torque1_y	ground_torque1_z	ground_torque2_x	ground_torque2_y	ground_torque2_z	
16.69161500000000	12.80266800000000	704.29695700000002	43.41643400000000	0.24544100000000	0.00000000000000	0.10328400000000	0.00000000000000	0.00000000000000	0.00000000000000	0.00000000000000	0.00000000000000	0.00000000000000	0.00000000000000	18.62817500000000	0.00000000000000	0.00000000000000	0.00000000000000	0.00000000000000	
16.69327300000000	12.33643600000000	704.79999699999996	43.45427100000000	0.24459300000000	0.00000000000000	0.10331700000000	0.00000000000000	0.00000000000000	0.00000000000000	0.00000000000000	0.00000000000000	0.00000000000000	0.00000000000000	18.68328300000000	0.00000000000000	0.00000000000000	0.00000000000000	0.00000000000000	
16.69493900000000	11.86180800000000	705.33904500000006	43.49239100000000	0.24372100000000	0.00000000000000	0.10335000000000	0.00000000000000	0.00000000000000	0.00000000000000	0.00000000000000	0.00000000000000	0.00000000000000	0.00000000000000	18.73993600000000	0.00000000000000	0.00000000000000	0.00000000000000	0.00000000000000	
16.69661500000000	11.37865100000000	705.91365399999995	43.53069100000000	0.24282500000000	0.00000000000000	0.10338100000000	0.00000000000000	0.00000000000000	0.00000000000000	0.00000000000000	0.00000000000000	0.00000000000000	0.00000000000000	18.79807200000000	0.00000000000000	0.00000000000000	0.00000000000000	0.00000000000000	
16.69826900000000	10.88686600000000	706.52341300000001	43.56907800000000	0.24190500000000	0.00000000000000	0.10341200000000	0.00000000000000	0.00000000000000	0.00000000000000	0.00000000000000	0.00000000000000	0.00000000000000	0.00000000000000	18.85764000000000	0.00000000000000	0.00000000000000	0.00000000000000	0.00000000000000	
16.69994000000000	10.38638100000000	707.16793800000005	43.60747200000000	0.24096000000000	0.00000000000000	0.10344300000000	0.00000000000000	0.00000000000000	0.00000000000000	0.00000000000000	0.00000000000000	0.00000000000000	0.00000000000000	18.91858800000000	0.00000000000000	0.00000000000000	0.00000000000000	0.00000000000000	
16.70160200000000	9.87715800000000	707.84687799999995	43.64580500000000	0.23999200000000	0.00000000000000	0.10347200000000	0.00000000000000	0.00000000000000	0.00000000000000	0.00000000000000	0.00000000000000	0.00000000000000	0.00000000000000	18.98087400000000	0.00000000000000	0.00000000000000	0.00000000000000	0.00000000000000	
16.70326800000000	9.35919400000000	708.55990799999995	43.68401700000000	0.23900000000000	0.00000000000000	0.10350100000000	0.00000000000000	0.00000000000000	0.00000000000000	0.00000000000000	0.00000000000000	0.00000000000000	0.00000000000000	19.04445600000000	0.00000000000000	0.00000000000000	0.00000000000000	0.00000000000000	
16.70494200000000	8.83251200000000	709.30673600000000	43.72206400000000	0.23798500000000	0.00000000000000	0.10352900000000	0.00000000000000	0.00000000000000	0.00000000000000	0.00000000000000	0.00000000000000	0.00000000000000	0.00000000000000	19.10929900000000	0.00000000000000	0.00000000000000	0.00000000000000	0.00000000000000	
16.70660600000000	8.29717300000000	710.08709399999998	43.75991000000000	0.23694700000000	0.00000000000000	0.10355500000000	0.00000000000000	0.00000000000000	0.00000000000000	0.00000000000000	0.00000000000000	0.00000000000000	0.00000000000000	19.17537000000000	0.00000000000000	0.00000000000000	0.00000000000000	0.00000000000000	
16.70828100000000	7.75326500000000	710.90074200000004	43.79753200000000	0.23588600000000	0.00000000000000	0.10358200000000	0.00000000000000	0.00000000000000	0.00000000000000	0.00000000000000	0.00000000000000	0.00000000000000	0.00000000000000	19.24264100000000	0.00000000000000	0.00000000000000	0.00000000000000	0.00000000000000	
16.70993600000000	7.20091100000000	711.74746300000004	43.83491900000000	0.23480500000000	0.00000000000000	0.10360700000000	0.00000000000000	0.00000000000000	0.00000000000000	0.00000000000000	0.00000000000000	0.00000000000000	0.00000000000000	19.31108500000000	0.00000000000000	0.00000000000000	0.00000000000000	0.00000000000000	
16.71160500000000	6.64026400000000	712.62706300000002	43.87206900000000	0.23370300000000	0.00000000000000	0.10363100000000	0.00000000000000	0.00000000000000	0.00000000000000	0.00000000000000	0.00000000000000	0.00000000000000	0.00000000000000	19.38067900000000	0.00000000000000	0.00000000000000	0.00000000000000	0.00000000000000	
16.71328100000000	6.07150700000000	713.53936899999997	43.90899500000000	0.23258100000000	0.00000000000000	0.10365300000000	0.00000000000000	0.00000000000000	0.00000000000000	0.00000000000000	0.00000000000000	0.00000000000000	0.00000000000000	19.45140300000000	0.00000000000000	0.00000000000000	0.00000000000000	0.00000000000000	
16.71493400000000	5.49485400000000	714.48422500000004	43.94571900000000	0.23144200000000	0.00000000000000	0.10367500000000	0.00000000000000	0.00000000000000	0.00000000000000	0.00000000000000	0.00000000000000	0.00000000000000	0.00000000000000	19.52323500000000	0.00000000000000	0.00000000000000	0.00000000000000	0.00000000000000	
16.71661400000000	4.91054700000000	715.46149100000002	43.98227400000000	0.23028600000000	0.00000000000000	0.10369600000000	0.00000000000000	0.00000000000000	0.00000000000000	0.00000000000000	0.00000000000000	0.00000000000000	0.00000000000000	19.59615900000000	0.00000000000000	0.00000000000000	0.00000000000000	0.00000000000000	
16.71826800000000	4.31885600000000	716.47104000000002	44.01870700000000	0.22911400000000	0.00000000000000	0.10371500000000	0.00000000000000	0.00000000000000	0.00000000000000	0.00000000000000	0.00000000000000	0.00000000000000	0.00000000000000	19.67015600000000	0.00000000000000	0.00000000000000	0.00000000000000	0.00000000000000	
16.71993700000000	3.72007900000000	717.51275599999997	44.05507300000000	0.22792800000000	0.00000000000000	0.10373200000000	0.00000000000000	0.00000000000000	0.00000000000000	0.00000000000000	0.00000000000000	0.00000000000000	0.00000000000000	19.74521000000000	0.00000000000000	0.00000000000000	0.00000000000000	0.00000000000000	
16.72161300000000	3.11454200000000	718.58652800000004	44.09144100000000	0.22672900000000	0.00000000000000	0.10374800000000	0.00000000000000	0.00000000000000	0.00000000000000	0.00000000000000	0.00000000000000	0.00000000000000	0.00000000000000	19.82130300000000	0.00000000000000	0.00000000000000	0.00000000000000	0.00000000000000	
16.72327400000000	2.50259200000000	719.69225100000006	44.12788800000000	0.22552000000000	0.00000000000000	0.10376300000000	0.00000000000000	0.00000000000000	0.00000000000000	0.00000000000000	0.00000000000000	0.00000000000000	0.00000000000000	19.89841800000000	0.00000000000000	0.00000000000000	0.00000000000000	0.00000000000000	
16.72493800000000	1.88460200000000	720.82982000000004	44.16450300000000	0.22430100000000	0.00000000000000	0.10377600000000	0.00000000000000	0.00000000000000	0.00000000000000	0.00000000000000	0.00000000000000	0.00000000000000	0.00000000000000	19.97653600000000	0.00000000000000	0.00000000000000	0.00000000000000	0.00000000000000	
16.72662600000000	1.26096900000000	721.99912800000004	44.20138800000000	0.22307400000000	0.00000000000000	0.10378600000000	0.00000000000000	0.00000000000000	0.00000000000000	0.00000000000000	0.00000000000000	0.00000000000000	0.00000000000000	20.05563600000000	0.00000000000000	0.00000000000000	0.00000000000000	0.00000000000000	
16.72827100000000	0.63210700000000	723.20006200000000	44.23865200000000	0.22184200000000	0.00000000000000	0.10379500000000	0.00000000000000	0.00000000000000	0.00000000000000	0.00000000000000	0.00000000000000	0.00000000000000	0.00000000000000	20.13569700000000	0.00000000000000	0.00000000000000	0.00000000000000	0.00000000000000	
16.72993600000000	-0.00154600000000	724.43249900000001	44.27641700000000	0.22060400000000	0.00000000000000	0.10380200000000	0.00000000000000	0.00000000000000	0.00000000000000	0.00000000000000	0.00000000000000	0.00000000000000	0.00000000000000	20.21669500000000	0.00000000000000	0.00000000000000	0.00000000000000	0.00000000000000	
16.73162500000000	-0.63953600000000	725.69630299999994	44.31481200000000	0.21936400000000	0.00000000000000	0.10380700000000	0.00000000000000	0.00000000000000	0.00000000000000	0.00000000000000	0.00000000000000	0.00000000000000	0.00000000000000	20.29860200000000	0.00000000000000	0.00000000000000	0.00000000000000	0.00000000000000	
16.73327200000000	-1.28139300000000	726.99132099999997	44.35397800000000	0.21812300000000	0.00000000000000	0.10381000000000	0.00000000000000	0.00000000000000	0.00000000000000	0.00000000000000	0.00000000000000	0.00000000000000	0.00000000000000	20.38138800000000	0.00000000000000	0.00000000000000	0.00000000000000	0.00000000000000	
16.73493900000000	-1.92663100000000	728.31738199999995	44.39406400000000	0.21688300000000	0.00000000000000	0.10381000000000	0.00000000000000	0.00000000000000	0.00000000000000	0.00000000000000	0.00000000000000	0.00000000000000	0.00000000000000	20.46502200000000	0.00000000000000	0.00000000000000	0.00000000000000	0.00000000000000	
16.73661100000000	-2.57475000000000	729.67428800000005	44.43523000000000	0.21564400000000	0.00000000000000	0.10380800000000	0.00000000000000	0.00000000000000	0.00000000000000	0.00000000000000	0.00000000000000	0.00000000000000	0.00000000000000	20.54946500000000	0.00000000000000	0.00000000000000	0.00000000000000	0.00000000000000	
16.73827600000000	-3.22524000000000	731.06181600000002	44.47764200000000	0.21440900000000	0.00000000000000	0.10380400000000	0.00000000000000	0.00000000000000	0.00000000000000	0.00000000000000	0.00000000000000	0.00000000000000	0.00000000000000	20.63467800000000	0.00000000000000	0.00000000000000	0.00000000000000	0.00000000000000	
16.73994100000000	-3.87757800000000	732.47970799999996	44.52147500000000	0.21317900000000	0.00000000000000	0.10379700000000	0.00000000000000	0.00000000000000	0.00000000000000	0.00000000000000	0.00000000000000	0.00000000000000	0.00000000000000	20.72061500000000	0.00000000000000	0.00000000000000	0.00000000000000	0.00000000000000	
16.74160800000000	-4.53123400000000	733.92767600000002	44.56691100000000	0.21195600000000	0.00000000000000	0.10378800000000	0.00000000000000	0.00000000000000	0.00000000000000	0.00000000000000	0.00000000000000	0.00000000000000	0.00000000000000	20.80722800000000	0.00000000000000	0.00000000000000	0.00000000000000	0.00000000000000	
16.74327500000000	-5.18567000000000	735.40538900000001	44.61413800000000	0.21074000000000	0.00000000000000	0.10377600000000	0.00000000000000	0.00000000000000	0.00000000000000	0.00000000000000	0.00000000000000	0.00000000000000	0.00000000000000	20.89446200000000	0.00000000000000	0.00000000000000	0.00000000000000	0.00000000000000	
16.74493700000000	-5.84034400000000	736.91247699999997	44.66335000000000	0.20953400000000	0.00000000000000	0.10376100000000	0.00000000000000	0.00000000000000	0.00000000000000	0.00000000000000	0.00000000000000	0.00000000000000	0.00000000000000	20.98226000000000	0.00000000000000	0.00000000000000	0.00000000000000	0.00000000000000	
16.74660500000000	-6.49470900000000	738.44852400000002	44.71474800000000	0.20833700000000	0.00000000000000	0.10374300000000	0.00000000000000	0.00000000000000	0.00000000000000	0.00000000000000	0.00000000000000	0.00000000000000	0.00000000000000	21.07055900000000	0.00000000000000	0.00000000000000	0.00000000000000	0.00000000000000	
16.74826900000000	-7.14821500000000	740.01306299999999	44.76853500000000	0.20715200000000	0.00000000000000	0.10372300000000	0.00000000000000	0.00000000000000	0.00000000000000	0.00000000000000	0.00000000000000	0.00000000000000	0.00000000000000	21.15928900000000	0.00000000000000	0.00000000000000	0.00000000000000	0.00000000000000	
16.74994000000000	-7.80031300000000	741.60557700000004	44.82491800000000	0.20598000000000	0.00000000000000	0.10370000000000	0.00000000000000	0.00000000000000	0.00000000000000	0.00000000000000	0.00000000000000	0.00000000000000	0.00000000000000	21.24837900000000	0.00000000000000	0.00000000000000	0.00000000000000	0.00000000000000	
